<svg xmlns="http://www.w3.org/2000/svg" viewBox="0 0 120 120"><defs><style>.cls-1{fill:none;stroke:#000;stroke-miterlimit:10;stroke-width:3px;}</style></defs><g id="Layer_1" data-name="Layer 1"><path class="cls-1" d="M103.93,74.94A46.48,46.48,0,0,0,83.47,21.31"/><path class="cls-1" d="M24.53,91.67A46.35,46.35,0,0,0,90.9,95.36"/><path class="cls-1" d="M60.4,14.65c-.29,0-.58,0-.88,0A46.5,46.5,0,0,0,13,61.11,47.05,47.05,0,0,0,13.89,70"/><path d="M105,86.2c-2.4-2.85-4.92-1.77-8-4.42-3.42-3,.52-3.89-3.53-6.19C87.57,72.26,84.6,66,81.28,60.32a3.11,3.11,0,0,1,.51-3.86,2.56,2.56,0,0,1,3.15-.35c1.5.81,2.78,1.59,4.23-.3s1.84-3.53.28-5.37c-.61-.73-.72-3-1.8-2-1.26,1.14-2.91.57-4.14,2.07-1.5,1.81-3.89-.23-5.92-.44-1.23-.12-1.18-1-1.18-1.94,0-4.64-.19-9.3,0-13.94.1-2.69-.11-5-3-6.5,3.09.26,4.7-1.74,5.34-3.85s1.87-3.78,2.78-5.67a1.22,1.22,0,0,0,0-2c-2-4.43-5.62-6.74-9.74-6.35a7.44,7.44,0,0,0-6.58,7.2c-.21,4.42-2.34,3.69-4.9,3.51-4.48-.32-8.42.45-12.14,3.51-5.49,4.51-10.67,9.3-15.71,14.29a11,11,0,0,0-2.87,6.4c-.09,0-.17.06-.26.19s0,.25.29.36a31,31,0,0,1-.09,19.09c-.72,1.2-.37,2.47-.23,3.72-3.79,4.43-9.77,5.8-13.79,9.89-2.62,2.34-4.92,5.23-7.9,6.89C.82,88.7.68,88.46,3.72,95.63c2,4.7,3.39,5.61,8.24,5.29.8,0,1.92.34,2.23-.79.24-.87-.73-1.19-1.22-1.71-2.77-2.9-2.72-6.1,0-9.08a13.81,13.81,0,0,1,6.51-4.29c1.56.34,3-.26,4.38-.77C29.19,82.38,34,79.34,39.55,78c2.41-.57,3.15-.23,2.92,2.4a40,40,0,0,1-2.94,13.1c-1.77,4-1.18,5.07,2.78,7.12a26.17,26.17,0,0,0,6.34,2.3,6.52,6.52,0,0,0,3.45-.14c2.35-1,2.4-2.61,1-4.48a17,17,0,0,1-3.46-7.58c4.25,2.14,8.87,2.49,13.35,3.39,3,.88,1.66,2.73,1,4.44-1.2,1.68-.6,2.77,1.15,3.47a5.32,5.32,0,0,0,2.8.07c3.09-1.06,6.94-6,6.77-9-.24-4.2-3.64-5.17-6.88-6.34,3.1,0,5.94-1.07,8.87-1.63a33.66,33.66,0,0,1,3.89,0,7.56,7.56,0,0,1,3.64.71c4.82,2.64,3.1,1.67,8,4.14,1.5.76,2.77,2.56,4.66,2.11,2.66-.41,2.86-1.52,5.1.37a4.5,4.5,0,0,0,3.92.92M45.93,65.59c-.35,1.73-1.85,2.12-4,3.24.88-2.28,1.08-3.79,2.83-4C45,64.75,46.15,64.5,45.93,65.59Zm4.79-12.91c.44-.18.58-.29.65-.26,1.63.74,3.07,1.65,3,3.72,0,.23-.41.6-.68.66C52.94,57,52.06,55.71,50.72,52.68ZM63,73.51c-2.51,1.85-5.76,1.5-8.45,2.81-.12.06-.47-.19-.59-.37-.56-.87,2.71-7.08,3.73-7.11,2.23.27,3.61,2.07,5.42,3.11C63.62,72.27,63.6,73,63,73.51Zm3.72-27.44A7.53,7.53,0,0,0,61.26,44h0l-.77.08c-1,.73-2,1.39-3,2.19-1.81,1.54-3.72.94-4.89-1.24-.72-1.33.46-1.13.85-1.42,1.28-.91,2.65-1.69,4-2.52h0l2.84-.15,5.49-2h0c1.56-.53,2.72-.56,2.46,1.67-.15,1.36-.11,2.74-.15,4.11.57.72,1.06,1.66.28,2.3S67.14,46.56,66.67,46.07Zm2.48,5c-1.13-1.31-1.25-2.27-.55-3.51C70,48.48,69.83,49.54,69.15,51.12Z"/><path d="M101.55,91.3a13.76,13.76,0,0,1,6.51,4.29c2.77,3,2.81,6.18,0,9.08-.5.52-1.47.84-1.23,1.71.31,1.13,1.43.74,2.24.79,4.84.32,6.24-.59,8.23-5.29,3-7.17,2.91-6.93-3.91-10.71a54.48,54.48,0,0,1-9.38-6.11"/></g></svg>