<svg xmlns="http://www.w3.org/2000/svg" viewBox="0 0 120 120"><g id="Layer_1" data-name="Layer 1"><path d="M69.66,105.8a2,2,0,0,1-1.26-.39,3,3,0,0,1-1.17-1.55l-1-3.57a2.61,2.61,0,0,1,1.84-3.23l1-.25c13.26-3.6,23.7-13.56,27.24-26A38,38,0,0,0,73.19,24.75l-.39,2.1a2.6,2.6,0,0,1-1.83,2,2,2,0,0,1-.76.1,2.65,2.65,0,0,1-1.93-.82L58.13,17.61a2.55,2.55,0,0,1-.74-1.84A2.35,2.35,0,0,1,58,13.94,2.51,2.51,0,0,1,60,13.09a45.47,45.47,0,0,1,12.35,1.75.64.64,0,0,1,.3.07h.09l0,0A47.14,47.14,0,0,1,106,69.19c-3.43,17.17-17.2,31.41-35.07,36.28l-.45.15A2.63,2.63,0,0,1,69.66,105.8Zm3.18-82.63a39.26,39.26,0,0,1,24.76,48c-3.68,12.88-14.5,23.22-28.24,27l-1,.24a1.29,1.29,0,0,0-.79.66,1,1,0,0,0,0,.81l1,3.61a1.6,1.6,0,0,0,.63.81,1.07,1.07,0,0,0,.56.15,1.47,1.47,0,0,0,.36,0l.43-.14C87.78,99.56,101.18,85.73,104.57,69a45.58,45.58,0,0,0-5.9-32.63A44.89,44.89,0,0,0,72.38,16.3H72l-.12-.12A43.44,43.44,0,0,0,60,14.48a1.23,1.23,0,0,0-.92.36,1.18,1.18,0,0,0-.29.93,1.24,1.24,0,0,0,.37.92L69.29,27.24a1.33,1.33,0,0,0,.92.44.5.5,0,0,0,.2,0,1.62,1.62,0,0,0,1-1.06l.7-3.6Z"/><path d="M60,13.47a45,45,0,0,1,12.29,1.74.29.29,0,0,1,.24.08h.16a46.78,46.78,0,0,1,33,53.83c-3.41,17-17.05,31.15-34.81,36l-.47.16a2.65,2.65,0,0,1-.71.15,1.66,1.66,0,0,1-1-.31,2.56,2.56,0,0,1-1-1.35l-1-3.57a2.25,2.25,0,0,1,1.59-2.77l1-.24c13.4-3.65,23.94-13.71,27.51-26.24A38.29,38.29,0,0,0,72.91,24.25l-.48,2.53a2.22,2.22,0,0,1-1.59,1.75,1.68,1.68,0,0,1-.63.08,2.26,2.26,0,0,1-1.66-.72L58.4,17.35a2.2,2.2,0,0,1-.64-1.58,2.1,2.1,0,0,1,.56-1.59A2.14,2.14,0,0,1,60,13.47M70.21,28.05c.08,0,.32,0,.4-.08A1.88,1.88,0,0,0,71.8,26.7l.63-3.25.32.08A38.85,38.85,0,0,1,97.24,71.1c-3.64,12.76-14.35,23-28,26.71l-1,.24a1.56,1.56,0,0,0-1.11,2l.95,3.57a2.06,2.06,0,0,0,.79,1,1.46,1.46,0,0,0,.76.21,2.1,2.1,0,0,0,.43,0l.48-.16c17.52-4.76,31-18.71,34.4-35.51A46,46,0,0,0,99,36.22a45.27,45.27,0,0,0-26.56-20.3h-.24l-.08-.08A43.85,43.85,0,0,0,60,14.1a1.62,1.62,0,0,0-1.19.48,1.57,1.57,0,0,0-.39,1.19A1.61,1.61,0,0,0,58.87,17L69,27.5a1.67,1.67,0,0,0,1.19.55M60,12.72a2.87,2.87,0,0,0-2.24,1A2.81,2.81,0,0,0,57,15.82a3,3,0,0,0,.86,2.06L68,28.41a3,3,0,0,0,2.2.95,2.22,2.22,0,0,0,.92-.14,3,3,0,0,0,2-2.3l.31-1.66A37.61,37.61,0,0,1,96.05,70.73c-3.5,12.29-13.84,22.15-27,25.73l-1,.23H68a3,3,0,0,0-2.08,3.69l1,3.56a3.22,3.22,0,0,0,1.34,1.78,2.28,2.28,0,0,0,1.45.44,3.08,3.08,0,0,0,1-.19l.47-.16c18-4.89,31.84-19.25,35.3-36.56a47.52,47.52,0,0,0-33.5-54.69l-.11,0h-.06a1.15,1.15,0,0,0-.32-.08A45.89,45.89,0,0,0,60,12.72ZM70.25,27.3h0a.89.89,0,0,1-.66-.33L59.41,16.43a.87.87,0,0,1-.26-.66c0-.41.07-.55.18-.66a.84.84,0,0,1,.65-.26,43.06,43.06,0,0,1,11.74,1.66l.16.16h.45a44.52,44.52,0,0,1,26,19.93A45.21,45.21,0,0,1,104.2,69c-3.36,16.55-16.65,30.26-33.87,34.94l-.47.15-.24,0a.66.66,0,0,1-.37-.1,1.3,1.3,0,0,1-.47-.63l-.94-3.52v0l0,0a.62.62,0,0,1,0-.5.87.87,0,0,1,.57-.47l1-.24C83.32,94.75,94.25,84.31,98,71.3A39.61,39.61,0,0,0,73,22.83l0,0h0l-.32-.08-.76-.19-.16.77-.62,3.22a1.14,1.14,0,0,1-.73.74l-.08,0Z"/><path d="M59.9,106.91a48.31,48.31,0,0,1-12.35-1.75.65.65,0,0,1-.21-.07h-.09l0,0A47,47,0,0,1,14,50.81c3.43-17.28,17.19-31.55,35.08-36.36l.45-.15a2.45,2.45,0,0,1,.69-.1A2.75,2.75,0,0,1,52.81,16l1,3.83A2.63,2.63,0,0,1,52,23.1L51,23.34C37.68,26.88,27.24,36.8,23.72,49.24a37.64,37.64,0,0,0,23,46l.39-2.1a2.65,2.65,0,0,1,1.74-2,2,2,0,0,1,.77-.1,2.65,2.65,0,0,1,1.93.82l10.23,10.55a2.55,2.55,0,0,1,.74,1.84,2.31,2.31,0,0,1-.67,1.86,2.66,2.66,0,0,1-1.93.82Zm-12-3.1a49.49,49.49,0,0,0,12,1.71,1.23,1.23,0,0,0,.92-.36,1.18,1.18,0,0,0,.29-.93,1.24,1.24,0,0,0-.37-.92L50.6,92.76a1.33,1.33,0,0,0-.92-.44.5.5,0,0,0-.2,0,1.62,1.62,0,0,0-1,1.06l-.7,3.53-.7-.18A38.86,38.86,0,0,1,22.37,49C26,36.05,36.85,25.74,50.61,22.06l1-.24a1.34,1.34,0,0,0,.8-.66,1,1,0,0,0,0-.82l-1-3.84a1.22,1.22,0,0,0-1.22-.9,1.74,1.74,0,0,0-.39.05l-.45.15C32,20.38,18.71,34.21,15.4,51A45.57,45.57,0,0,0,47.52,103.7.88.88,0,0,1,47.93,103.81Z"/><path d="M50.25,14.58a2.37,2.37,0,0,1,2.2,1.58l1,3.81a2.24,2.24,0,0,1-1.58,2.77l-1,.24c-13.4,3.57-23.94,13.55-27.51,26.16A37.92,37.92,0,0,0,47,95.75l.48-2.53A2.26,2.26,0,0,1,49,91.47a1.76,1.76,0,0,1,.64-.08,2.26,2.26,0,0,1,1.66.72l10.23,10.54a2.2,2.2,0,0,1,.63,1.58,2,2,0,0,1-.55,1.59,2.27,2.27,0,0,1-1.67.71,47.85,47.85,0,0,1-12.28-1.74.28.28,0,0,1-.16-.08H47.3A46.63,46.63,0,0,1,14.4,50.88c3.41-17.2,17.12-31.31,34.8-36.07l.48-.15a1.87,1.87,0,0,1,.57-.08m-2.79,89.5h.08a.35.35,0,0,1,.24.08A50.29,50.29,0,0,0,59.9,105.9a1.59,1.59,0,0,0,1.19-.48,1.53,1.53,0,0,0,.4-1.19,1.58,1.58,0,0,0-.48-1.18L50.87,92.5A1.69,1.69,0,0,0,49.68,92c-.08,0-.32,0-.4.08a1.88,1.88,0,0,0-1.19,1.27l-.63,3.17-.32-.08A38.47,38.47,0,0,1,22.73,49.06c3.64-12.84,14.34-23,28-26.64l1-.23a1.56,1.56,0,0,0,1.11-2l-1-3.8a1.59,1.59,0,0,0-1.58-1.17,2,2,0,0,0-.48.06l-.48.16C31.84,20.05,18.37,34,15,51a46,46,0,0,0,32.42,53.12m2.79-90.25a2.91,2.91,0,0,0-.77.1L49,14.1c-18,4.84-31.85,19.22-35.3,36.64a47.37,47.37,0,0,0,33.42,54.69l.1,0h.06a1.14,1.14,0,0,0,.22.07,48.87,48.87,0,0,0,12.42,1.75,3,3,0,0,0,2.21-.93,2.73,2.73,0,0,0,.77-2.17,2.94,2.94,0,0,0-.85-2.06L51.8,91.58a3,3,0,0,0-2.2-.94,2.34,2.34,0,0,0-.94.14,3,3,0,0,0-1.94,2.3l-.31,1.66A37.25,37.25,0,0,1,24.08,49.35C27.57,37,37.9,27.21,51.06,23.7l1-.23h0a3,3,0,0,0,2.09-3.69l-1-3.8v-.06a3.12,3.12,0,0,0-2.91-2.08ZM50,16l.28,0a.86.86,0,0,1,.86.62l1,3.8v.08a.64.64,0,0,1,0,.51.89.89,0,0,1-.57.47l-1,.23C36.63,25.41,25.71,35.82,22,48.86A39.25,39.25,0,0,0,46.9,97.1H47l.32.08.76.19.15-.77.63-3.13a1.13,1.13,0,0,1,.73-.75l.08,0h0a.89.89,0,0,1,.66.33l10.13,10.54a.85.85,0,0,1,.27.66c0,.41-.07.55-.18.66a.85.85,0,0,1-.66.26,48.88,48.88,0,0,1-11.82-1.69,1,1,0,0,0-.51-.13,45.21,45.21,0,0,1-31.8-52.22c3.28-16.69,16.51-30.4,33.7-34.94L50,16Z"/><path d="M84.48,48.11a15.51,15.51,0,0,0-11.34-4.68H45.24a16,16,0,0,0-15.94,16A15.79,15.79,0,0,0,34,70.78a15.53,15.53,0,0,0,11.34,4.68,16.1,16.1,0,0,0,10.54-4h6.9a15.78,15.78,0,0,0,21.8-.71,15.49,15.49,0,0,0,4.68-11.33A16.17,16.17,0,0,0,84.48,48.11ZM55.23,61.43a.86.86,0,0,1-.32.71,1.19,1.19,0,0,1-.71.32h-6v6a1.12,1.12,0,0,1-.24.72,1.19,1.19,0,0,1-.71.31h-4a1,1,0,0,1-1-1v-6.1h-6a.85.85,0,0,1-.71-.32,1.19,1.19,0,0,1-.32-.71v-4a.86.86,0,0,1,.32-.71,1.16,1.16,0,0,1,.71-.32h6V50.49a.89.89,0,0,1,.31-.72,1.24,1.24,0,0,1,.72-.31h4a.86.86,0,0,1,.71.31,1.19,1.19,0,0,1,.32.72v6h6a1,1,0,0,1,1,1v.08l-.08,3.89ZM72,66.18a4,4,0,1,1,1.19-2.85A3.77,3.77,0,0,1,72,66.18ZM80,58.26a4,4,0,1,1,0-5.63,4,4,0,0,1,1.19,2.77A3.53,3.53,0,0,1,80,58.26Z"/></g></svg>